<?xml version='1.0' encoding='iso-8859-1'?>
<!DOCTYPE svg PUBLIC '-//W3C//DTD SVG 1.1//EN' 'http://www.w3.org/Graphics/SVG/1.1/DTD/svg11.dtd'>
<svg version="1.1" xmlns="http://www.w3.org/2000/svg" viewBox="0 0 512 512" xmlns:xlink="http://www.w3.org/1999/xlink" enable-background="new 0 0 512 512">
  <path d="m479.998,399.999v-191.999c14.203,0 26.703-9.359 30.703-22.984 4-13.625-1.453-28.258-13.398-35.929l-223.998-143.999c-10.547-6.781-24.062-6.781-34.609,6.21725e-15l-223.999,143.999c-11.945,7.672-17.398,22.304-13.398,35.929 4,13.625 16.5,22.984 30.703,22.984v191.998c-17.672,0-32,14.328-32,32v48c0,17.672 14.328,32 32,32h447.996c17.672,0 32-14.328 32-32v-48c0-17.671-14.328-31.999-32-31.999zm-319.997,0h-64v-191.999h63.999v191.999zm128,0h-64v-191.999h64v191.999zm-32-255.998c-17.672,0-32-14.333-32-32 0-17.666 14.328-32 32-32 17.672,0 32,14.334 32,32 0,17.667-14.328,32-32,32zm159.999,255.998h-63.999v-191.999h63.999v191.999z"/>
</svg>
